<?xml version="1.0" encoding="utf-8"?>
<!-- Generator: Adobe Illustrator 27.1.1, SVG Export Plug-In . SVG Version: 6.00 Build 0)  -->
<svg version="1.1" id="Capa_1" xmlns="http://www.w3.org/2000/svg" xmlns:xlink="http://www.w3.org/1999/xlink" x="0px" y="0px"
	 viewBox="0 0 185.33 107.33" style="enable-background:new 0 0 185.33 107.33;" xml:space="preserve">
<style type="text/css">
	.st0{fill:#B2B2B2;}
	.st1{fill:#A4C850;}
	.st2{fill:#108370;}
</style>
<g>
	<path class="st0" d="M89.28,35.37L74.26,39.9l3.52,2.36c-25.14,33.48-30.68,9.13-30.3,6.86c-8.05,39.72,28.06,16.16,38.55-1.13
		c0.01-0.07-0.01-0.13,0-0.2l3.26,2.19V35.37z"/>
	<path class="st0" d="M49.77,45.67l15.02-4.54l-3.52-2.36c25.14-33.48,30.68-9.13,30.3-6.86c8.05-39.72-28.06-16.16-38.55,1.13
		c-0.01,0.07,0.01,0.13,0,0.2l-3.26-2.19V45.67z"/>
	<path class="st0" d="M57.44,61.31l-15.02,4.54l3.52,2.36c-25.14,33.48-30.68,9.13-30.3,6.86c-8.05,39.72,28.06,16.16,38.55-1.13
		c0.01-0.07-0.01-0.13,0-0.2l3.26,2.19V61.31z"/>
	<path class="st0" d="M17.93,71.61l15.02-4.54l-3.52-2.36c25.14-33.48,30.68-9.13,30.3-6.86c8.05-39.72-28.06-16.16-38.55,1.13
		c-0.01,0.07,0.01,0.13,0,0.2l-3.26-2.19V71.61z"/>
	<path class="st1" d="M87.28,33.37L72.26,37.9l3.52,2.36c-25.14,33.48-30.68,9.13-30.3,6.86c-8.05,39.72,28.06,16.16,38.55-1.13
		c0.01-0.07-0.01-0.13,0-0.2l3.26,2.19V33.37z"/>
	<path class="st1" d="M47.77,43.67l15.02-4.54l-3.52-2.36c25.14-33.48,30.68-9.13,30.3-6.86c8.05-39.72-28.06-16.16-38.55,1.13
		c-0.01,0.07,0.01,0.13,0,0.2l-3.26-2.19V43.67z"/>
	<g>
		<path d="M90.41,56.3h-0.88l1.94-11.6h1.9l-0.74,4.44c0.74-1.21,1.61-1.82,2.63-1.82c0.78,0,1.39,0.33,1.86,0.98
			c0.46,0.65,0.69,1.49,0.69,2.52c0,1.34-0.36,2.62-1.07,3.83c-0.72,1.21-1.71,1.81-2.97,1.81c-1.18,0-2.03-0.54-2.54-1.63
			L90.41,56.3z M93.66,54.86c0.7,0,1.24-0.44,1.63-1.31c0.39-0.87,0.59-1.76,0.59-2.67c0-1.3-0.46-1.95-1.37-1.95
			c-0.71,0-1.3,0.44-1.76,1.33c-0.46,0.89-0.69,1.82-0.69,2.8c0,0.56,0.16,1,0.49,1.32C92.88,54.7,93.25,54.86,93.66,54.86z"/>
		<path d="M99.81,53.76c0.33,0.86,1.02,1.29,2.05,1.29c0.52,0,0.92-0.11,1.22-0.32c0.3-0.21,0.45-0.48,0.45-0.81
			c0-0.24-0.1-0.44-0.3-0.58c-0.2-0.14-0.54-0.28-1.02-0.42c-0.78-0.22-1.35-0.41-1.72-0.59c-0.37-0.18-0.69-0.46-0.94-0.83
			c-0.25-0.37-0.38-0.8-0.38-1.28c0-0.75,0.29-1.41,0.86-1.97c0.57-0.56,1.38-0.84,2.42-0.84c1.69,0,2.88,0.68,3.57,2.04l-1.64,0.53
			c-0.38-0.75-1.01-1.13-1.88-1.13c-0.39,0-0.72,0.09-0.99,0.27c-0.27,0.18-0.41,0.42-0.41,0.73c0,0.22,0.07,0.39,0.2,0.54
			c0.13,0.14,0.4,0.27,0.8,0.38c0.92,0.27,1.6,0.51,2.04,0.71c0.44,0.2,0.8,0.49,1.05,0.86c0.26,0.37,0.39,0.8,0.39,1.28
			c0,0.82-0.31,1.5-0.94,2.05c-0.63,0.55-1.55,0.82-2.78,0.82c-1.97,0-3.25-0.76-3.85-2.29L99.81,53.76z"/>
		<path d="M114.28,53.87c-0.79,1.77-2.05,2.65-3.77,2.65c-1.13,0-2.02-0.35-2.67-1.04c-0.65-0.7-0.97-1.62-0.97-2.78
			c0-1.47,0.41-2.72,1.23-3.73c0.82-1.01,1.87-1.52,3.16-1.52c1.16,0,2.03,0.37,2.62,1.1c0.59,0.73,0.89,1.73,0.89,2.99
			c0,0.21-0.01,0.44-0.03,0.68h-5.94c-0.04,0.24-0.06,0.46-0.06,0.65c0,0.65,0.16,1.18,0.47,1.57c0.31,0.4,0.76,0.6,1.34,0.6
			c0.9,0,1.57-0.54,2.04-1.61L114.28,53.87z M112.96,50.98c0-1.46-0.57-2.19-1.7-2.19c-1.17,0-1.93,0.73-2.26,2.19H112.96z"/>
		<path d="M117.7,56.3h-1.9l1.44-8.64h1.75l-0.39,2.35c0.74-1.73,1.74-2.59,2.99-2.59c0.05,0,0.13,0,0.23,0.01l-0.25,2.12
			c-0.19-0.01-0.33-0.02-0.42-0.02c-0.47,0-0.91,0.12-1.33,0.37c-0.42,0.25-0.74,0.58-0.98,1.01c-0.24,0.42-0.43,1.11-0.59,2.08
			L117.7,56.3z"/>
		<path d="M126.09,56.3h-1.78l-1.83-8.64h2.08l1.15,6.05l2.81-6.05h1.68L126.09,56.3z"/>
		<path d="M137.15,56.3h-1.88c-0.01-0.15-0.02-0.28-0.02-0.37c0-0.41,0.05-0.91,0.15-1.49c-0.28,0.65-0.69,1.15-1.22,1.52
			c-0.53,0.37-1.12,0.56-1.76,0.56c-0.77,0-1.4-0.24-1.88-0.72s-0.73-1.07-0.73-1.77c0-0.97,0.43-1.74,1.3-2.31
			c0.86-0.57,2.22-0.86,4.06-0.86c0.24,0,0.52,0.01,0.83,0.03c0.04-0.26,0.06-0.47,0.06-0.62c0-0.46-0.16-0.82-0.48-1.05
			c-0.32-0.24-0.72-0.36-1.19-0.36c-0.91,0-1.58,0.4-2,1.2l-1.7-0.54c0.71-1.4,1.97-2.11,3.78-2.11c1.08,0,1.93,0.24,2.55,0.73
			c0.62,0.49,0.93,1.14,0.93,1.95c0,0.35-0.14,1.26-0.41,2.74c-0.29,1.56-0.43,2.55-0.43,2.96
			C137.11,55.96,137.12,56.12,137.15,56.3z M135.83,51.89c-1.48,0.08-2.51,0.27-3.08,0.59c-0.58,0.31-0.87,0.77-0.87,1.37
			c0,0.35,0.12,0.63,0.35,0.85c0.23,0.22,0.55,0.33,0.95,0.33c0.58,0,1.11-0.25,1.61-0.76C135.28,53.75,135.62,52.96,135.83,51.89z"
			/>
		<path d="M143.34,56.32c-0.57,0.08-0.98,0.13-1.21,0.13c-0.8,0-1.38-0.18-1.75-0.54c-0.37-0.36-0.56-0.8-0.56-1.31
			c0-0.27,0.07-0.78,0.2-1.55l0.65-3.82h-1.28l0.26-1.55h1.3l0.52-2.33l1.73-0.12l-0.41,2.45h1.86l-0.25,1.55h-1.87l-0.65,3.85
			c-0.08,0.48-0.12,0.78-0.12,0.92c0,0.55,0.41,0.82,1.22,0.82c0.17,0,0.38-0.02,0.62-0.06L143.34,56.32z"/>
		<path d="M148.47,56.52c-0.64,0-1.26-0.14-1.86-0.42c-0.6-0.28-1.05-0.73-1.37-1.35c-0.31-0.61-0.47-1.35-0.47-2.2
			c0-1.38,0.4-2.57,1.21-3.57c0.81-1.01,1.87-1.51,3.18-1.51c1.08,0,1.94,0.36,2.58,1.08c0.65,0.72,0.97,1.69,0.97,2.91
			c0,1.25-0.38,2.41-1.16,3.47C150.8,56,149.77,56.52,148.47,56.52z M148.49,54.97c0.77,0,1.34-0.4,1.7-1.19
			c0.36-0.8,0.54-1.63,0.54-2.5c0-1.5-0.58-2.24-1.73-2.24c-0.81,0-1.39,0.43-1.74,1.28c-0.35,0.85-0.53,1.71-0.53,2.56
			c0,0.72,0.17,1.25,0.51,1.59C147.58,54.8,148,54.97,148.49,54.97z"/>
		<path d="M155.65,56.3h-1.9l1.44-8.64h1.75l-0.39,2.35c0.74-1.73,1.74-2.59,2.99-2.59c0.05,0,0.13,0,0.23,0.01l-0.25,2.12
			c-0.19-0.01-0.33-0.02-0.42-0.02c-0.47,0-0.91,0.12-1.33,0.37c-0.42,0.25-0.74,0.58-0.98,1.01c-0.23,0.42-0.43,1.11-0.59,2.08
			L155.65,56.3z"/>
		<path d="M161.79,56.3h-2l1.44-8.64h2L161.79,56.3z M163.4,46.66h-2l0.35-2.07h2L163.4,46.66z"/>
		<path d="M167.96,56.52c-0.64,0-1.26-0.14-1.86-0.42c-0.6-0.28-1.05-0.73-1.37-1.35c-0.31-0.61-0.47-1.35-0.47-2.2
			c0-1.38,0.4-2.57,1.21-3.57c0.81-1.01,1.87-1.51,3.18-1.51c1.08,0,1.94,0.36,2.58,1.08c0.65,0.72,0.97,1.69,0.97,2.91
			c0,1.25-0.38,2.41-1.16,3.47C170.29,56,169.26,56.52,167.96,56.52z M167.98,54.97c0.77,0,1.34-0.4,1.7-1.19
			c0.36-0.8,0.54-1.63,0.54-2.5c0-1.5-0.58-2.24-1.73-2.24c-0.81,0-1.39,0.43-1.74,1.28c-0.35,0.85-0.53,1.71-0.53,2.56
			c0,0.72,0.17,1.25,0.51,1.59C167.07,54.8,167.49,54.97,167.98,54.97z"/>
	</g>
	<g>
		<path d="M66.09,80.01c-0.82,1.84-2.04,2.75-3.67,2.75c-1.01,0-1.84-0.34-2.48-1.02c-0.64-0.68-0.96-1.64-0.96-2.88
			c0-1.39,0.39-2.61,1.18-3.64c0.79-1.03,1.78-1.55,2.97-1.55c0.9,0,1.65,0.26,2.26,0.79c0.6,0.52,0.98,1.27,1.13,2.23l-1.61,0.31
			c-0.23-1.13-0.79-1.7-1.69-1.7c-0.67,0-1.21,0.38-1.63,1.14c-0.42,0.76-0.63,1.63-0.63,2.62c0,0.75,0.16,1.29,0.48,1.6
			c0.32,0.31,0.69,0.47,1.13,0.47c0.85,0,1.5-0.57,1.94-1.71L66.09,80.01z"/>
		<path d="M74.02,82.58h-1.77l0.31-1.89c-0.73,1.36-1.71,2.05-2.93,2.05c-0.68,0-1.2-0.22-1.56-0.65c-0.36-0.44-0.54-0.92-0.54-1.45
			c0-0.28,0.07-0.85,0.22-1.72l0.83-4.98h1.9l-0.9,5.36c-0.08,0.49-0.12,0.8-0.12,0.91c0,0.28,0.09,0.5,0.26,0.66
			c0.18,0.17,0.4,0.25,0.69,0.25c0.39,0,0.79-0.16,1.2-0.48c0.41-0.32,0.7-0.7,0.87-1.13c0.17-0.43,0.33-1.07,0.47-1.91l0.61-3.65
			h1.9L74.02,82.58z"/>
		<path d="M77.73,85.59h-1.9l1.95-11.66h1.7l-0.3,1.78c0.71-1.38,1.61-2.07,2.68-2.07c0.81,0,1.47,0.33,1.97,0.99
			c0.5,0.66,0.76,1.54,0.76,2.66c0,1.39-0.34,2.66-1.02,3.81c-0.68,1.15-1.57,1.72-2.67,1.72c-1.18,0-1.99-0.59-2.41-1.78
			L77.73,85.59z M80.54,81.27c0.66,0,1.17-0.42,1.53-1.25c0.36-0.84,0.54-1.7,0.54-2.58c0-1.49-0.45-2.23-1.36-2.23
			c-0.69,0-1.26,0.41-1.72,1.22c-0.46,0.81-0.69,1.71-0.69,2.69c0,0.72,0.17,1.26,0.5,1.62C79.67,81.09,80.07,81.27,80.54,81.27z"/>
		<path d="M92.7,82.58h-1.88c-0.01-0.15-0.02-0.28-0.02-0.37c0-0.41,0.05-0.91,0.15-1.49c-0.28,0.65-0.69,1.15-1.22,1.52
			c-0.53,0.37-1.12,0.56-1.76,0.56c-0.77,0-1.4-0.24-1.88-0.72c-0.48-0.48-0.73-1.07-0.73-1.77c0-0.97,0.43-1.74,1.3-2.31
			c0.86-0.57,2.22-0.86,4.06-0.86c0.24,0,0.52,0.01,0.83,0.03c0.04-0.26,0.06-0.47,0.06-0.62c0-0.46-0.16-0.82-0.48-1.05
			c-0.32-0.24-0.72-0.36-1.19-0.36c-0.91,0-1.58,0.4-2,1.2l-1.7-0.54c0.71-1.4,1.97-2.11,3.78-2.11c1.08,0,1.93,0.24,2.55,0.73
			c0.62,0.49,0.93,1.14,0.93,1.95c0,0.35-0.14,1.26-0.41,2.74c-0.29,1.56-0.43,2.55-0.43,2.97C92.67,82.23,92.68,82.39,92.7,82.58z
			 M91.38,78.17c-1.48,0.08-2.51,0.27-3.08,0.59c-0.58,0.31-0.87,0.77-0.87,1.37c0,0.34,0.12,0.63,0.35,0.84
			c0.23,0.22,0.55,0.33,0.95,0.33c0.58,0,1.11-0.25,1.61-0.76C90.83,80.03,91.18,79.24,91.38,78.17z"/>
		<path d="M102.12,80.01c-0.82,1.84-2.04,2.75-3.67,2.75c-1.01,0-1.84-0.34-2.48-1.02c-0.64-0.68-0.96-1.64-0.96-2.88
			c0-1.39,0.39-2.61,1.18-3.64c0.79-1.03,1.78-1.55,2.97-1.55c0.9,0,1.65,0.26,2.26,0.79c0.6,0.52,0.98,1.27,1.13,2.23l-1.61,0.31
			c-0.23-1.13-0.79-1.7-1.69-1.7c-0.67,0-1.21,0.38-1.63,1.14c-0.42,0.76-0.63,1.63-0.63,2.62c0,0.75,0.16,1.29,0.48,1.6
			c0.32,0.31,0.69,0.47,1.13,0.47c0.85,0,1.5-0.57,1.94-1.71L102.12,80.01z"/>
		<path d="M105.17,82.58h-2l1.44-8.64h2L105.17,82.58z M106.78,72.93h-2l0.35-2.07h2L106.78,72.93z"/>
		<path d="M111.34,82.8c-0.64,0-1.26-0.14-1.86-0.42c-0.6-0.28-1.05-0.73-1.37-1.35c-0.31-0.61-0.47-1.35-0.47-2.2
			c0-1.38,0.41-2.57,1.22-3.57c0.81-1.01,1.87-1.51,3.18-1.51c1.08,0,1.94,0.36,2.58,1.08c0.65,0.72,0.97,1.69,0.97,2.91
			c0,1.25-0.39,2.41-1.16,3.47C113.66,82.27,112.63,82.8,111.34,82.8z M111.36,81.24c0.77,0,1.34-0.4,1.7-1.19
			c0.36-0.8,0.54-1.63,0.54-2.5c0-1.5-0.58-2.24-1.73-2.24c-0.81,0-1.39,0.43-1.74,1.28c-0.35,0.86-0.53,1.71-0.53,2.56
			c0,0.72,0.17,1.25,0.51,1.59C110.45,81.07,110.87,81.24,111.36,81.24z"/>
		<path d="M123.64,82.58h-1.9l0.88-5.19c0.06-0.39,0.09-0.72,0.09-1c0-0.32-0.09-0.58-0.27-0.8c-0.18-0.22-0.45-0.33-0.81-0.33
			c-0.58,0-1.09,0.29-1.53,0.88c-0.44,0.59-0.75,1.44-0.93,2.55l-0.65,3.89h-1.9l1.44-8.64h1.77l-0.34,2.01
			c0.54-1.01,1.04-1.64,1.5-1.88c0.46-0.25,0.91-0.37,1.34-0.37c0.63,0,1.17,0.21,1.64,0.64c0.46,0.43,0.69,1.02,0.69,1.79
			c0,0.3-0.06,0.78-0.17,1.44L123.64,82.58z"/>
		<path d="M133.53,80.14c-0.79,1.77-2.05,2.65-3.77,2.65c-1.13,0-2.02-0.35-2.67-1.05c-0.65-0.7-0.97-1.62-0.97-2.78
			c0-1.47,0.41-2.72,1.23-3.73c0.82-1.01,1.87-1.52,3.16-1.52c1.15,0,2.03,0.37,2.62,1.1c0.59,0.73,0.89,1.73,0.89,2.99
			c0,0.21-0.01,0.44-0.03,0.68h-5.94c-0.04,0.24-0.06,0.46-0.06,0.65c0,0.65,0.16,1.17,0.47,1.57c0.31,0.4,0.76,0.59,1.34,0.59
			c0.89,0,1.57-0.54,2.04-1.61L133.53,80.14z M132.2,77.25c0-1.46-0.57-2.19-1.7-2.19c-1.17,0-1.93,0.73-2.26,2.19H132.2z"/>
		<path d="M136.1,80.04c0.33,0.86,1.02,1.29,2.05,1.29c0.51,0,0.92-0.11,1.22-0.32c0.3-0.21,0.45-0.48,0.45-0.81
			c0-0.24-0.1-0.44-0.3-0.58c-0.2-0.14-0.54-0.28-1.02-0.42c-0.78-0.21-1.35-0.41-1.72-0.59c-0.37-0.18-0.69-0.46-0.94-0.83
			c-0.25-0.37-0.38-0.8-0.38-1.28c0-0.75,0.29-1.41,0.86-1.97c0.57-0.56,1.38-0.84,2.42-0.84c1.69,0,2.88,0.68,3.57,2.04l-1.64,0.53
			c-0.38-0.75-1.01-1.13-1.88-1.13c-0.39,0-0.72,0.09-0.99,0.27c-0.27,0.18-0.41,0.42-0.41,0.73c0,0.21,0.07,0.39,0.2,0.54
			c0.13,0.14,0.4,0.27,0.8,0.38c0.92,0.27,1.6,0.51,2.04,0.71c0.45,0.2,0.8,0.49,1.05,0.86c0.26,0.37,0.39,0.8,0.39,1.28
			c0,0.82-0.31,1.5-0.94,2.05c-0.63,0.55-1.55,0.82-2.78,0.82c-1.96,0-3.25-0.76-3.85-2.29L136.1,80.04z"/>
	</g>
	<g>
		<path d="M83.79,68.36h-1.32l0.21-1.27c-0.5,0.94-1.15,1.41-1.95,1.41c-0.55,0-1-0.22-1.34-0.67c-0.34-0.44-0.51-1.06-0.51-1.87
			c0-1.09,0.26-2.03,0.77-2.81c0.51-0.78,1.17-1.17,1.96-1.17c0.85,0,1.41,0.41,1.68,1.23l0.53-3.13h1.36L83.79,68.36z M81.28,67.39
			c0.53,0,0.94-0.29,1.26-0.88c0.31-0.59,0.47-1.23,0.47-1.93c0-0.43-0.1-0.78-0.31-1.05c-0.21-0.27-0.48-0.4-0.83-0.4
			c-0.53,0-0.92,0.3-1.19,0.91c-0.27,0.61-0.4,1.29-0.4,2.03C80.27,66.94,80.6,67.39,81.28,67.39z"/>
		<path d="M90.85,66.62c-0.57,1.26-1.46,1.89-2.69,1.89c-0.81,0-1.45-0.25-1.91-0.75c-0.46-0.5-0.69-1.16-0.69-1.98
			c0-1.05,0.29-1.94,0.88-2.66c0.58-0.72,1.34-1.09,2.25-1.09c0.83,0,1.45,0.26,1.87,0.78c0.42,0.52,0.63,1.23,0.63,2.14
			c0,0.15-0.01,0.31-0.02,0.49h-4.24c-0.03,0.17-0.04,0.33-0.04,0.46c0,0.47,0.11,0.84,0.34,1.12c0.22,0.28,0.54,0.42,0.96,0.42
			c0.64,0,1.12-0.38,1.46-1.15L90.85,66.62z M89.91,64.55c0-1.04-0.4-1.57-1.21-1.57c-0.84,0-1.38,0.52-1.61,1.57H89.91z"/>
		<path d="M96.46,68.36h-1.43l1.38-8.28h1.43L96.46,68.36z"/>
		<path d="M103.24,68.36h-1.34c-0.01-0.11-0.01-0.2-0.01-0.27c0-0.3,0.04-0.65,0.11-1.06c-0.2,0.46-0.49,0.82-0.87,1.09
			c-0.38,0.26-0.8,0.4-1.26,0.4c-0.55,0-1-0.17-1.34-0.51c-0.35-0.34-0.52-0.76-0.52-1.26c0-0.69,0.31-1.24,0.93-1.65
			c0.62-0.41,1.58-0.61,2.9-0.61c0.17,0,0.37,0.01,0.59,0.02c0.03-0.19,0.04-0.33,0.04-0.44c0-0.33-0.11-0.58-0.34-0.75
			c-0.23-0.17-0.51-0.25-0.85-0.25c-0.65,0-1.13,0.29-1.43,0.86l-1.21-0.38c0.51-1,1.41-1.5,2.7-1.5c0.77,0,1.38,0.17,1.82,0.52
			c0.45,0.35,0.67,0.81,0.67,1.39c0,0.25-0.1,0.9-0.29,1.95c-0.21,1.11-0.31,1.82-0.31,2.12C103.22,68.11,103.23,68.23,103.24,68.36
			z M102.3,65.21c-1.06,0.06-1.79,0.2-2.2,0.42c-0.41,0.22-0.62,0.55-0.62,0.98c0,0.25,0.08,0.45,0.25,0.6
			c0.17,0.16,0.39,0.23,0.68,0.23c0.41,0,0.79-0.18,1.15-0.54C101.91,66.54,102.16,65.97,102.3,65.21z"/>
		<path d="M105.54,66.54c0.24,0.62,0.73,0.92,1.46,0.92c0.37,0,0.66-0.08,0.87-0.23c0.21-0.15,0.32-0.34,0.32-0.58
			c0-0.17-0.07-0.31-0.22-0.41c-0.14-0.1-0.39-0.2-0.73-0.3c-0.55-0.15-0.96-0.3-1.23-0.42c-0.27-0.13-0.49-0.33-0.67-0.59
			c-0.18-0.27-0.27-0.57-0.27-0.92c0-0.54,0.2-1.01,0.61-1.41c0.41-0.4,0.98-0.6,1.73-0.6c1.21,0,2.06,0.49,2.55,1.46l-1.17,0.38
			c-0.27-0.54-0.72-0.81-1.34-0.81c-0.28,0-0.52,0.07-0.71,0.19c-0.19,0.13-0.29,0.3-0.29,0.52c0,0.15,0.05,0.28,0.14,0.38
			c0.09,0.1,0.29,0.19,0.57,0.27c0.66,0.19,1.14,0.36,1.46,0.51c0.32,0.14,0.57,0.35,0.75,0.61c0.18,0.27,0.28,0.57,0.28,0.91
			c0,0.58-0.22,1.07-0.67,1.46c-0.45,0.39-1.11,0.59-1.99,0.59c-1.4,0-2.32-0.54-2.75-1.63L105.54,66.54z"/>
	</g>
	<path class="st2" d="M55.44,59.31l-15.02,4.54l3.52,2.36c-25.14,33.48-30.68,9.13-30.3,6.86c-8.05,39.72,28.06,16.16,38.55-1.13
		c0.01-0.07-0.01-0.13,0-0.2l3.26,2.19V59.31z"/>
	<path class="st2" d="M15.93,69.61l15.02-4.54l-3.52-2.36c25.14-33.48,30.68-9.13,30.3-6.86c8.05-39.72-28.06-16.16-38.55,1.13
		c-0.01,0.07,0.01,0.13,0,0.2l-3.26-2.19V69.61z"/>
</g>
</svg>
